<?xml version="1.0" encoding="UTF-8"?>
<svg version="1.1" xmlns="http://www.w3.org/2000/svg" width="2160" height="2160">

<path d="M0 0 C1.37319712 -0.00216774 1.37319712 -0.00216774 2.77413559 -0.00437927 C32.29036257 -0.04195342 61.50069135 0.68887027 90.85772705 4.046875 C93.03565605 4.29518778 95.21444929 4.53244797 97.39404297 4.765625 C106.0323364 5.71168731 114.61051949 6.92102369 123.1875 8.3125 C124.01618591 8.44634094 124.84487183 8.58018188 125.69866943 8.71807861 C170.02692195 15.90625467 213.38874303 25.54354623 256.1875 39.3125 C257.95794678 39.88073486 257.95794678 39.88073486 259.76416016 40.46044922 C328.99198301 62.8041112 396.75793762 93.58476383 457.36376953 134.09472656 C459.18308693 135.30955322 461.01034671 136.51150808 462.83984375 137.7109375 C480.81951254 149.53802321 498.18655305 162.12089386 515.1875 175.3125 C515.88166016 175.85068359 516.57582031 176.38886719 517.29101562 176.94335938 C533.42942227 189.48103609 549.05968796 202.57371912 564.1875 216.3125 C565.74994746 217.70839215 567.31244901 219.10422375 568.875 220.5 C570.6484383 222.10128635 572.41904187 223.70571525 574.1875 225.3125 C574.68749512 225.76592773 575.18749023 226.21935547 575.70263672 226.68652344 C584.59816828 234.78418884 593.17335555 243.19293462 601.6875 251.6875 C602.20596497 252.20337677 602.72442993 252.71925354 603.25860596 253.25076294 C608.55653629 258.52781049 613.77060393 263.83038846 618.63574219 269.515625 C621.18717156 272.47008066 623.88438972 275.28585891 626.5625 278.125 C631.19346215 283.07344972 635.59248195 288.13122744 639.828125 293.42578125 C642.08919322 296.19222068 644.41930908 298.87663979 646.78125 301.55639648 C653.7593459 309.48184297 660.21856663 317.71398788 666.55810547 326.15527344 C668.18190442 328.30509177 669.82360474 330.43981828 671.47265625 332.5703125 C721.92309673 397.78398687 762.20026727 471.27484496 806.1875 593.3125 C806.54038086 594.40594727 806.89326172 595.49939453 807.25683594 596.62597656 C819.87882164 635.99055224 828.47146827 676.5767336 834.60302734 717.41992188 C835.08513747 720.63076726 835.58130135 723.83890862 836.08203125 727.046875 C837.94327806 739.39302596 839.09758738 751.82719673 840.3125 764.25 C840.39912903 765.12071136 840.48575806 765.99142273 840.57501221 766.88851929 C843.07769231 792.24078226 843.3965562 817.54771405 843.375 843 C843.37458584 843.78713127 843.37417168 844.57426254 843.37374496 845.38524628 C843.34290116 892.22754928 843.34290116 892.22754928 841.1875 915.3125 C841.11208984 916.13492188 841.03667969 916.95734375 840.95898438 917.8046875 C838.33503242 946.18535182 834.42611145 974.2977063 829.1875 1002.3125 C829.03817017 1003.11242371 828.88884033 1003.91234741 828.73498535 1004.73651123 C823.67623552 1031.65024349 816.77714339 1058.01011246 809.1875 1084.3125 C808.8790918 1085.38307648 808.8790918 1085.38307648 808.56445312 1086.47528076 C796.83874436 1127.04098791 781.150448 1166.13724161 763.1875 1204.3125 C762.72553223 1205.3034668 762.26356445 1206.29443359 761.78759766 1207.31542969 C751.22265289 1229.95201 739.96438984 1252.43645987 726.1875 1273.3125 C721.41289502 1270.25468971 717.05659548 1266.85823062 712.6875 1263.25 C707.58474072 1259.06722768 702.45680828 1254.92751149 697.25 1250.875 C691.24423614 1246.19226248 685.36898273 1241.36167171 679.50415039 1236.50415039 C675.11348102 1232.87560874 670.68239895 1229.31091283 666.1875 1225.8125 C660.10952265 1221.08116679 654.16027719 1216.20369525 648.22485352 1211.29516602 C643.79540114 1207.63280577 639.33916657 1204.00997855 634.83984375 1200.43359375 C631.27221342 1197.58054033 627.73054387 1194.69599326 624.1875 1191.8125 C619.86659635 1188.29669035 615.54315945 1184.7852555 611.1875 1181.3125 C606.12047685 1177.27257614 601.09695383 1173.17978624 596.0703125 1169.08984375 C591.68429802 1165.52310367 587.2803099 1161.98042735 582.859375 1158.45703125 C580.06460764 1156.21386271 577.28574944 1153.9519877 574.50805664 1151.68774414 C568.79500517 1147.03094367 563.06326732 1142.40622526 557.25 1137.875 C551.24910708 1133.19530195 545.37786601 1128.36891518 539.51733398 1123.51513672 C534.42862617 1119.30988913 529.27400766 1115.20112044 524.06982422 1111.14013672 C519.71966749 1107.74247758 515.4350734 1104.27204262 511.171875 1100.765625 C497.31268307 1089.37226482 497.31268307 1089.37226482 483.1875 1078.3125 C484.70874193 1073.41072045 486.68589998 1068.84476432 488.8125 1064.1875 C495.70603321 1048.86167018 501.85690875 1033.24951843 507.1875 1017.3125 C507.64358643 1015.9502832 507.64358643 1015.9502832 508.10888672 1014.56054688 C519.42388395 980.51980858 527.58071768 945.9084958 532.1875 910.3125 C532.33848145 909.20471191 532.48946289 908.09692383 532.64501953 906.95556641 C535.36329658 886.13303639 535.47817097 865.2673504 535.49757385 844.30469894 C535.49996811 842.09196857 535.50529034 839.87925878 535.51086426 837.66653442 C535.54197277 820.78911619 535.14983596 804.09612555 533.1875 787.3125 C533.03403805 785.9156053 532.88125059 784.51863629 532.72924805 783.12158203 C530.75632839 765.66670807 527.98144577 748.46649954 524.1875 731.3125 C523.93629395 730.14928223 523.68508789 728.98606445 523.42626953 727.78759766 C508.8996241 660.8476057 481.35090376 596.57501502 442.1875 540.3125 C441.76839355 539.70728516 441.34928711 539.10207031 440.91748047 538.47851562 C431.50651555 524.93745174 421.50879519 511.81009037 410.75 499.3125 C408.25783681 496.39484554 405.84233067 493.42728948 403.4375 490.4375 C400.45209242 486.76682982 397.3708031 483.36166531 393.96020508 480.08618164 C392.23162286 478.35664716 390.65010322 476.56538361 389.06640625 474.703125 C384.83774858 469.83871745 380.31684949 465.29508531 375.75 460.75 C374.53860352 459.53280273 374.53860352 459.53280273 373.30273438 458.29101562 C368.96968256 453.96494697 364.56166095 449.79480207 359.91870117 445.80297852 C357.75354091 443.93888271 355.66115106 442.00089043 353.5625 440.0625 C348.51709545 435.51008154 343.22850993 431.33756733 337.859375 427.1796875 C335.46524564 425.32278357 333.10284502 423.43581777 330.765625 421.5078125 C307.12754377 402.06149339 280.88973413 386.1518589 254.1875 371.3125 C253.46675293 370.9107959 252.74600586 370.5090918 252.00341797 370.09521484 C220.57796119 352.69593505 186.57312222 339.52667929 152.1875 329.3125 C151.03926758 328.96880371 149.89103516 328.62510742 148.70800781 328.27099609 C115.98893584 318.57898297 83.28174249 313.02093318 49.38299561 309.54101562 C47.44468942 309.33926926 45.50763 309.12562098 43.57080078 308.91015625 C-14.43576962 302.46598741 -78.53697117 307.64330236 -134.55859375 324.08984375 C-137.32941511 324.90197017 -140.10213807 325.64427069 -142.91015625 326.31640625 C-215.80814062 343.90958807 -285.58977897 382.55599118 -342.8125 430.3125 C-343.38838867 430.78929199 -343.96427734 431.26608398 -344.55761719 431.75732422 C-345.11352539 432.21768066 -345.66943359 432.67803711 -346.2421875 433.15234375 C-346.72026855 433.54800537 -347.19834961 433.94366699 -347.69091797 434.35131836 C-359.8664192 444.60601514 -371.29294881 455.6062784 -382.54345703 466.8581543 C-384.56914755 468.88164032 -386.60275336 470.89694534 -388.63671875 472.91210938 C-395.12377852 479.37191508 -401.3564653 485.835991 -407.01367188 493.04614258 C-408.77820934 495.26929694 -410.63321611 497.35686827 -412.5625 499.4375 C-418.77261361 506.35134418 -424.24290108 513.88243954 -429.8125 521.3125 C-430.29654297 521.95525879 -430.78058594 522.59801758 -431.27929688 523.26025391 C-476.71394705 583.71765132 -507.99938954 653.72969817 -524.8125 727.3125 C-525.17698242 728.84729004 -525.17698242 728.84729004 -525.54882812 730.41308594 C-539.74214712 790.27977758 -541.8738023 857.25856908 -532.18164062 917.88232422 C-531.82156462 920.25282459 -531.51813856 922.62316968 -531.234375 925.00390625 C-521.45708821 1004.87744247 -487.59414199 1086.28758224 -440.8125 1151.3125 C-440.0086084 1152.43301758 -440.0086084 1152.43301758 -439.18847656 1153.57617188 C-431.53724852 1164.19972524 -423.57908309 1174.5122499 -415.22753906 1184.59326172 C-413.96747335 1186.12421112 -412.72830531 1187.67230647 -411.4921875 1189.22265625 C-405.58848629 1196.61862142 -399.1679527 1203.46906099 -392.66943359 1210.33789062 C-390.79335027 1212.33286327 -388.93533882 1214.34324078 -387.08203125 1216.359375 C-379.19990071 1224.94462946 -379.19990071 1224.94462946 -370.58984375 1232.78515625 C-368.60896652 1234.48740459 -366.81712892 1236.31187196 -365 1238.1875 C-361.11389077 1242.13444851 -356.91084043 1245.56808955 -352.59375 1249.03125 C-349.95729995 1251.19373151 -347.44381294 1253.43898417 -344.9375 1255.75 C-339.76814462 1260.44205966 -334.31162654 1264.69996226 -328.72607422 1268.87890625 C-327.3965828 1269.87492227 -326.07030764 1270.87524004 -324.74658203 1271.87890625 C-281.22169546 1304.86618871 -233.14189335 1330.78754956 -181.8125 1349.3125 C-180.68924316 1349.72064941 -179.56598633 1350.12879883 -178.40869141 1350.54931641 C-138.83824954 1364.76760359 -97.4060685 1373.64694392 -55.60693359 1378.02001953 C-53.7754769 1378.21170965 -51.94498113 1378.41287019 -50.11572266 1378.62451172 C-6.88860352 1383.53439265 37.55065172 1380.82508676 80.51171875 1374.76953125 C81.37836655 1374.64756882 82.24501434 1374.52560638 83.13792419 1374.39994812 C88.8708873 1373.56728081 94.47979824 1372.45237348 100.10546875 1371.05859375 C103.51345421 1370.23359347 106.93369842 1369.54727116 110.375 1368.875 C116.92277129 1367.58992339 123.43181734 1366.16737521 129.93432617 1364.67016602 C132.01492059 1364.19759234 134.10001286 1363.7534432 136.1875 1363.3125 C137.41597656 1363.0340625 138.64445312 1362.755625 139.91015625 1362.46875 C143.1875 1362.3125 143.1875 1362.3125 145.71484375 1363.7265625 C146.51019531 1364.45617188 147.30554687 1365.18578125 148.125 1365.9375 C149.06601563 1366.76765625 150.00703125 1367.5978125 150.9765625 1368.453125 C151.48735352 1368.91267578 151.99814453 1369.37222656 152.52441406 1369.84570312 C155.60068317 1372.55888938 158.80884374 1375.11152478 162 1377.6875 C162.6801416 1378.24034668 163.3602832 1378.79319336 164.06103516 1379.36279297 C169.08292983 1383.44137457 174.15715722 1387.44891166 179.25366211 1391.43359375 C183.62501771 1394.85633587 187.93430837 1398.34860527 192.22265625 1401.875 C200.7894227 1408.91803329 209.37897631 1415.93029655 218.125 1422.75 C224.12950683 1427.43270589 230.00409477 1432.2623733 235.86865234 1437.11865234 C240.28270299 1440.7659102 244.73487739 1444.35374789 249.25 1447.875 C257.67957102 1454.44905066 265.94751108 1461.21899708 274.22851562 1467.97851562 C281.15038111 1473.62617385 288.08027434 1479.25596202 295.125 1484.75 C301.12576176 1489.42987181 306.99712816 1494.25607999 312.85766602 1499.10986328 C317.94637383 1503.31511087 323.10099234 1507.42387956 328.30517578 1511.48486328 C332.66190345 1514.88765461 336.95267612 1518.36370943 341.22265625 1521.875 C349.7894227 1528.91803329 358.37897631 1535.93029655 367.125 1542.75 C373.12290616 1547.42755825 378.99207444 1552.25071908 384.84887695 1557.10327148 C390.01855216 1561.37668907 395.26058778 1565.54508061 400.55126953 1569.66723633 C404.53202253 1572.77547134 408.39828176 1575.97437917 412.1875 1579.3125 C409.89126729 1581.83979142 407.55463715 1583.37044101 404.55859375 1584.9921875 C403.62031738 1585.50185059 402.68204102 1586.01151367 401.71533203 1586.53662109 C400.69552246 1587.08141113 399.67571289 1587.62620117 398.625 1588.1875 C397.55362793 1588.76193848 396.48225586 1589.33637695 395.37841797 1589.92822266 C316.9966892 1631.7113015 231.644443 1661.50184728 143.92944336 1675.84765625 C141.42090117 1676.27293132 138.92829703 1676.74287971 136.43359375 1677.2421875 C112.95134041 1681.90875255 89.02140143 1684.00023881 65.1875 1686 C64.46761902 1686.06075714 63.74773804 1686.12151428 63.00604248 1686.18411255 C58.06892517 1686.59628324 53.12997349 1686.97058873 48.1875 1687.3125 C47.48452789 1687.36162537 46.78155579 1687.41075073 46.05728149 1687.46136475 C31.00851965 1688.47574465 15.95314259 1688.55548055 0.875 1688.5625 C-0.43830292 1688.56317474 -1.75160583 1688.56384949 -3.10470581 1688.56454468 C-64.17939681 1688.54189557 -125.25954261 1681.97930028 -184.8125 1668.3125 C-186.73984558 1667.87620358 -188.66719157 1667.43990899 -190.59455872 1667.00370789 C-203.88880005 1663.98834905 -217.16647044 1660.9286944 -230.24462891 1657.06835938 C-232.15399502 1656.50633261 -234.06547305 1655.95147059 -235.97802734 1655.40039062 C-307.49523274 1634.78174002 -376.48349912 1604.3822659 -439.75976562 1565.19433594 C-442.42759368 1563.54977271 -445.10632779 1561.92732112 -447.796875 1560.3203125 C-483.77792168 1538.79432832 -517.37204257 1512.89708131 -549.20605469 1485.68066406 C-550.84204842 1484.28733444 -552.48662368 1482.90470031 -554.1328125 1481.5234375 C-565.90151147 1471.60434637 -577.14840996 1461.1004511 -587.95141602 1450.13793945 C-589.86434789 1448.26164513 -591.84505058 1446.49839159 -593.875 1444.75 C-598.97768505 1440.34494767 -603.67421447 1435.6804292 -608.0625 1430.5625 C-610.99531528 1427.15409305 -614.11348279 1423.96878432 -617.3125 1420.8125 C-621.0603917 1417.10948188 -624.65674046 1413.3360326 -628.078125 1409.328125 C-630.07162581 1407.01135379 -632.12804388 1404.75830016 -634.1875 1402.5 C-638.06161881 1398.20776382 -641.73267548 1393.78471326 -645.3671875 1389.2890625 C-647.60878701 1386.56047012 -649.89585024 1383.88289801 -652.20898438 1381.21533203 C-657.83529899 1374.72439048 -663.21536158 1368.09143025 -668.37548828 1361.22216797 C-670.00213846 1359.0604864 -671.63987024 1356.90739967 -673.27734375 1354.75390625 C-694.23013488 1327.11300394 -713.33523066 1298.27283574 -730.8125 1268.3125 C-731.63911133 1266.89686768 -731.63911133 1266.89686768 -732.48242188 1265.45263672 C-779.40447101 1184.69094651 -812.40757805 1095.8404811 -836.38330078 965.42480469 C-836.88576917 961.78119433 -837.43794164 958.14718544 -838.01147461 954.51416016 C-839.09599317 947.4775303 -840.07116079 940.45046547 -840.796875 933.3671875 C-840.88141937 932.54664383 -840.96596375 931.72610016 -841.05307007 930.88069153 C-841.310182 928.3583411 -841.56233544 925.83554824 -841.8125 923.3125 C-841.88708435 922.56739166 -841.9616687 921.82228333 -842.03851318 921.05459595 C-847.04724541 870.32926845 -846.92711895 818.02050224 -841.8125 767.3125 C-841.72528687 766.42570557 -841.63807373 765.53891113 -841.54821777 764.62524414 C-837.67951162 725.29195059 -831.41175564 686.91251247 -822.3170166 648.45629883 C-821.58199397 645.33303065 -820.86582754 642.20548332 -820.1484375 639.078125 C-814.50100872 614.68426733 -806.87776587 590.99203854 -798.8125 567.3125 C-798.34094482 565.91306152 -798.34094482 565.91306152 -797.85986328 564.48535156 C-780.38795577 512.63774011 -756.67204537 462.05739512 -728.515625 415.15380859 C-726.85124862 412.37714398 -725.20590057 409.58989798 -723.5625 406.80078125 C-707.15167846 379.17215825 -688.60865557 352.61633001 -668.8125 327.3125 C-667.92030585 326.16166533 -667.02838637 325.01061768 -666.13671875 323.859375 C-661.15693812 317.45162105 -656.06698694 311.16181992 -650.79272461 304.99389648 C-647.94749673 301.666272 -645.17533697 298.29230016 -642.4375 294.875 C-637.81608063 289.18965675 -632.83296402 283.87653975 -627.8203125 278.5390625 C-625.50873155 276.07366101 -623.26140836 273.56709767 -621.0625 271 C-617.88689199 267.31346496 -614.44658824 263.93136558 -610.984375 260.515625 C-609.08483365 258.58875212 -607.31227056 256.62411086 -605.5625 254.5625 C-598.59530078 246.45846175 -590.84725589 238.89662055 -582.703125 231.984375 C-580.47602921 230.01495971 -578.40035046 227.92875658 -576.3125 225.8125 C-572.95993221 222.41981601 -569.51774318 219.22149316 -565.8984375 216.1171875 C-563.56224499 214.09598724 -561.28285149 212.01871161 -559 209.9375 C-554.67989209 206.03886603 -550.23178619 202.33746142 -545.70703125 198.6796875 C-543.19930768 196.62883665 -540.73210567 194.53882437 -538.27636719 192.42626953 C-530.78431394 185.99562887 -523.00363035 179.98914981 -515.11767578 174.05126953 C-512.76930973 172.27992204 -510.42922831 170.49803112 -508.08984375 168.71484375 C-472.9634909 142.03280114 -435.67192358 118.47275105 -396.69042969 97.83740234 C-393.874298 96.34524434 -391.06588056 94.83929578 -388.2578125 93.33203125 C-349.67382824 72.7557184 -309.20547467 56.29319388 -267.8125 42.3125 C-266.5076364 41.86771491 -265.20278624 41.42289039 -263.89794922 40.97802734 C-256.63435529 38.51433524 -249.35697374 36.25733625 -241.9375 34.3125 C-235.58916182 32.61982613 -229.27976909 30.86873962 -223 28.9375 C-214.46247345 26.35350547 -205.79142061 24.28593777 -197.125 22.1875 C-196.42361908 22.01728333 -195.72223816 21.84706665 -194.99960327 21.67169189 C-174.0502673 16.60002797 -153.02454417 12.47389754 -131.6875 9.4375 C-130.35554092 9.2472374 -130.35554092 9.2472374 -128.99667358 9.0531311 C-114.23340629 6.95734044 -99.44555629 5.13926901 -84.625 3.5 C-83.69596863 3.39504211 -82.76693726 3.29008423 -81.80975342 3.1819458 C-54.59226216 0.12918375 -27.35537753 0.03394501 0 0 Z " fill="#FEFEFE" transform="translate(995.8125,142.6875)"/>
<path d="M0 0 C1.155 0.49113281 2.31 0.98226563 3.5 1.48828125 C13.98757654 6.01807156 23.07730136 11.91141163 32 19 C33.175625 19.92039062 33.175625 19.92039062 34.375 20.859375 C40.57570245 25.76128166 46.64901204 30.82197177 52.74511719 35.8527832 C58.12256578 40.28756434 63.54137035 44.66548605 69 49 C70.58355479 50.27055736 72.16688024 51.54140062 73.75 52.8125 C76.59424481 55.09057068 79.44834534 57.35470075 82.3203125 59.59765625 C89.04497934 64.85013604 95.67324596 70.18245962 102.20703125 75.671875 C104.75695656 77.79740715 107.33564159 79.87612426 109.9375 81.9375 C113.27337715 84.5837487 116.53561978 87.29756036 119.76757812 90.06835938 C124.21208329 93.87867784 128.65282288 97.55304456 133.4375 100.9375 C138.50083607 104.52679354 143.13067858 108.49464758 147.79956055 112.57128906 C152.15769587 116.34973556 156.69768179 119.73791842 161.41015625 123.06640625 C165.05024583 125.78412019 168.3338647 128.83847439 171.671875 131.9140625 C174.30489441 134.2731772 177.05587412 136.35754787 179.91015625 138.4375 C182.29533468 140.22081098 184.58110972 142.10064488 186.875 144 C191.77526885 148.04391119 196.77989307 151.93501277 201.8125 155.8125 C208.03806032 160.61701554 214.08338368 165.56532165 220.01171875 170.73046875 C226.69000024 176.52142612 233.7387127 181.80995298 240.8125 187.10546875 C241.6375 187.73066406 242.4625 188.35585937 243.3125 189 C244.38951172 189.804375 244.38951172 189.804375 245.48828125 190.625 C245.98714844 191.07875 246.48601563 191.5325 247 192 C247 192.66 247 193.32 247 194 C247.99 194.2784375 247.99 194.2784375 249 194.5625 C252.43667094 196.20923816 254.69840564 198.26686618 257.50390625 200.8125 C260.53992959 203.47317773 263.69192506 205.95623556 266.875 208.4375 C267.48456543 208.91372803 268.09413086 209.38995605 268.72216797 209.88061523 C269.92726346 210.8216838 271.13266001 211.762367 272.33837891 212.70263672 C278.44105277 217.46749257 284.42581636 222.34593852 290.3125 227.375 C295.12997347 231.48908409 300.06288948 235.3982405 305.11328125 239.22119141 C309.70400698 242.71829317 314.09510173 246.42171275 318.4765625 250.17578125 C321.25455754 252.54822957 324.04873754 254.8468777 327 257 C330.45754101 259.52307047 333.69421426 262.27365623 336.9375 265.0625 C342.01145351 269.41578546 347.23109364 273.52938158 352.5625 277.5625 C359.55209295 282.85152258 366.30457519 288.34122477 373 294 C378.80637612 298.8189546 384.67709167 303.54525051 390.625 308.1875 C396.73021195 312.95301823 402.70986615 317.85957906 408.67333984 322.80078125 C413.70603432 326.96105079 418.81006996 331.0149352 423.96606445 335.02075195 C427.96354794 338.14257974 431.84030065 341.3829055 435.6875 344.6875 C439.4877252 347.95052059 443.34639902 351.04262738 447.4375 353.9375 C452.44678219 357.49270899 457.04023723 361.40511534 461.66552734 365.43505859 C465.53226135 368.78749274 469.479305 371.97816106 473.5625 375.0625 C477.99613129 378.41154937 482.28379417 381.8809582 486.5 385.5 C491.25518027 389.58086899 496.1271143 393.44712082 501.12280273 397.22827148 C505.04688931 400.21751776 508.82130951 403.34819058 512.5625 406.5625 C517.561254 410.85473749 522.7235217 414.83677161 528.02734375 418.75 C532.18274605 421.89521909 536.15306078 425.24309599 540.13671875 428.6015625 C542.70739721 430.75490026 545.30838073 432.85629088 547.9375 434.9375 C551.29320504 437.59836402 554.57079703 440.33069933 557.81933594 443.11987305 C562.912359 447.49155713 568.04647011 451.50063196 573.61328125 455.265625 C577.11452053 457.80989708 580.20287013 460.75424979 583.37890625 463.6875 C587.02972529 466.90849087 590.93604528 469.73031636 594.85546875 472.61328125 C598.78723457 475.59751593 602.52927476 478.76859634 606.27783203 481.97729492 C611.096188 486.09976269 616.02688306 490.06567558 621 494 C623.38320167 495.90414593 625.76398517 497.81128542 628.14453125 499.71875 C630.36729676 501.49452983 632.59433689 503.26444265 634.82421875 505.03125 C635.49300049 505.56266602 636.16178223 506.09408203 636.85083008 506.64160156 C638.17329866 507.69243054 639.49729176 508.74134454 640.82299805 509.78808594 C644.07108174 512.37288574 647.13762529 514.97940357 650 518 C649.154375 518.31453125 648.30875 518.6290625 647.4375 518.953125 C646.303125 519.38109375 645.16875 519.8090625 644 520.25 C642.88625 520.66765625 641.7725 521.0853125 640.625 521.515625 C638.00532543 522.58833657 635.57796286 523.69665017 633.07421875 524.98828125 C629.09378744 527.01727667 625.0411494 528.5141841 620.8125 529.9375 C619.31726796 530.45445721 617.82247997 530.97270043 616.328125 531.4921875 C615.59658203 531.74581055 614.86503906 531.99943359 614.11132812 532.26074219 C607.38658833 534.61533424 600.72801734 537.01055954 594.4375 540.375 C589.32935219 543.03089745 583.98365027 544.90796621 578.5625 546.8125 C577.67296631 547.12687012 576.78343262 547.44124023 575.86694336 547.76513672 C569.3850953 550 569.3850953 550 566 550 C565.67 550.99 565.34 551.98 565 553 C563.26025391 553.85620117 563.26025391 553.85620117 560.9765625 554.54296875 C560.1306958 554.80762939 559.2848291 555.07229004 558.41333008 555.3449707 C557.03310669 555.76202271 557.03310669 555.76202271 555.625 556.1875 C548.53816583 558.43539365 541.63092652 560.84605622 534.8125 563.8125 C525.97237877 567.65549318 517.00663212 571.11433526 507.98168945 574.49926758 C502.82008607 576.45274569 497.86730414 578.50754863 492.97338867 581.05322266 C489.11670863 582.90355115 485.04807009 584.1978097 481 585.5625 C479.29137431 586.14628044 477.58303706 586.73090582 475.875 587.31640625 C475.05644531 587.59500488 474.23789063 587.87360352 473.39453125 588.16064453 C471.09683968 588.96605477 468.83095825 589.83099518 466.5625 590.71484375 C463 592 463 592 460 592 C460 592.66 460 593.32 460 594 C459.38068604 594.22139648 458.76137207 594.44279297 458.12329102 594.67089844 C455.26841902 595.69374567 452.41546261 596.72183967 449.5625 597.75 C448.58861328 598.09804687 447.61472656 598.44609375 446.61132812 598.8046875 C441.26350587 600.73634236 436.06845124 602.78676703 430.95288086 605.27441406 C429 606 429 606 425 606 C425 606.66 425 607.32 425 608 C423.13988281 608.60714844 423.13988281 608.60714844 421.2421875 609.2265625 C415.48752512 611.14628366 409.80614089 613.24906106 404.125 615.375 C403.11308594 615.74882813 402.10117188 616.12265625 401.05859375 616.5078125 C396.12456626 618.35254493 391.28266787 620.28567099 386.50390625 622.50390625 C379.72020438 625.64834585 372.7207415 628.14377158 365.69726562 630.69335938 C360.58655774 632.57349823 355.70995355 634.57091442 350.88012695 637.08227539 C345.32635619 639.79317324 339.25323516 641.41260484 333.36621094 643.23876953 C331.20879797 643.93282789 329.09800671 644.7004207 326.9765625 645.49609375 C315.59506493 649.44060846 304.16457687 649.48021737 292.25 649.5 C290.99493149 649.50673737 290.99493149 649.50673737 289.71450806 649.51361084 C275.35517071 649.54490437 261.94420388 647.99503091 248.4375 642.75 C247.63723389 642.44481445 246.83696777 642.13962891 246.01245117 641.82519531 C227.85954563 634.76220337 212.66272491 624.53241901 198.11328125 611.71875 C194.88831548 608.87898577 191.53799772 606.23493943 188.125 603.625 C181.82501239 598.80736242 175.715153 593.77642582 169.6875 588.625 C164.81616245 584.46661124 159.83190761 580.50185917 154.73291016 576.62719727 C150.35901515 573.29831636 146.10871026 569.83941384 141.87109375 566.33984375 C138.65777678 563.72109972 135.39541793 561.17169568 132.125 558.625 C126.8182678 554.48679598 121.65299842 550.21061513 116.53686523 545.83984375 C112.95569994 542.78729803 109.30554016 539.86390529 105.5703125 537.00390625 C102.02621267 534.24080106 98.5462782 531.40107461 95.0625 528.5625 C90.72106322 525.02540191 86.37936666 521.49015516 82 518 C77.62063162 514.50984348 73.27902819 510.97448797 68.9375 507.4375 C64.04526553 503.45320187 59.12730911 499.51482447 54.12890625 495.6640625 C48.78421531 491.48637747 43.58075629 487.1284588 38.34765625 482.8125 C33.27955475 478.64489818 28.1676775 474.54286947 23 470.5 C17.94116515 466.54180078 12.93647421 462.52736373 7.9765625 458.4453125 C4.3293857 455.4490754 0.66515495 452.47419714 -3 449.5 C-7.55306172 445.80528496 -12.09756366 442.10112017 -16.625 438.375 C-21.18433552 434.63783974 -25.8128888 430.99655821 -30.45751953 427.36669922 C-35.70276409 423.25709624 -40.87014319 419.05579894 -46.03125 414.84130859 C-50.37675308 411.29955548 -54.76403806 407.81870256 -59.1875 404.375 C-64.38882361 400.32240333 -69.44652861 396.12798295 -74.45776367 391.84326172 C-78.10137853 388.73516052 -81.82785617 385.77707688 -85.6328125 382.87109375 C-88.61597903 380.51311229 -91.48969287 378.03849612 -94.375 375.5625 C-98.3067577 372.19502234 -102.27455966 368.99969307 -106.5 366 C-111.20610598 362.65600863 -115.57500889 359.03940597 -119.94873047 355.28173828 C-124.50240976 351.3829943 -129.18067612 347.66834188 -133.90942383 343.98510742 C-137.4789278 341.20231477 -141.00670841 338.37863618 -144.5 335.5 C-148.5984461 332.12374704 -152.75179528 328.82904466 -156.9375 325.5625 C-161.37953425 322.09485524 -165.75102234 318.56642183 -170.0625 314.9375 C-174.08633573 311.55321432 -178.18358459 308.29771676 -182.375 305.125 C-187.06200148 301.57304938 -191.56211511 297.85820268 -196 294 C-200.97783421 289.67309743 -206.06329785 285.56008029 -211.31860352 281.57592773 C-215.67858162 278.26760264 -219.90944657 274.82441931 -224.12890625 271.33984375 C-227.34222322 268.72109972 -230.60458207 266.17169568 -233.875 263.625 C-239.17720273 259.49032807 -244.33859967 255.21837972 -249.44995117 250.85083008 C-253.17074255 247.67881112 -256.9634993 244.63360923 -260.84375 241.66015625 C-264.0049431 239.22626663 -267.10522124 236.71798293 -270.21484375 234.21875 C-272.21891549 232.62223843 -274.2297619 231.03933937 -276.25390625 229.46875 C-283.04809589 224.18992873 -289.6681291 218.76909446 -296.16870117 213.13208008 C-299.63767609 210.13420658 -303.165235 207.31250711 -306.87890625 204.62109375 C-309.84472156 202.35440249 -312.66346858 199.925405 -315.5 197.5 C-319.52264854 194.06105446 -323.57621068 190.76553917 -327.85546875 187.6484375 C-330.76441295 185.41241846 -333.52999293 183.01460677 -336.3125 180.625 C-340.2650375 177.23581267 -344.24918252 174.01590846 -348.5 171 C-353.20693552 167.65541919 -357.57682705 164.03836066 -361.95092773 160.27954102 C-365.9082555 156.89079148 -369.94997058 153.63569365 -374.0625 150.4375 C-378.54599169 146.95027092 -382.96474576 143.40524104 -387.3125 139.75 C-393.39080528 134.64971991 -399.52332929 129.68644945 -406.0625 125.1875 C-407.031875 124.465625 -408.00125 123.74375 -409 123 C-409 122.34 -409 121.68 -409 121 C-408.16082031 120.67128906 -408.16082031 120.67128906 -407.3046875 120.3359375 C-402.287744 118.35174441 -397.3209675 116.28035281 -392.375 114.125 C-386.51967234 111.59641793 -380.60443404 109.31598778 -374.61962891 107.11425781 C-371.10287876 105.81341253 -367.65262299 104.45017447 -364.25 102.875 C-359.98722434 100.90943172 -355.59308309 99.51487157 -351.12890625 98.078125 C-346.91428978 96.6258976 -342.8602499 94.8620671 -338.7890625 93.05078125 C-335.85798033 91.94649399 -333.09787163 91.41579103 -330 91 C-330 90.34 -330 89.68 -330 89 C-329.23816406 88.75765625 -328.47632813 88.5153125 -327.69140625 88.265625 C-322.11133969 86.45436744 -316.72244206 84.52268983 -311.3984375 82.0625 C-307.42980607 80.3044092 -303.35805001 78.81695323 -299.30078125 77.27734375 C-296.29787549 76.11527253 -293.33640838 74.88825812 -290.375 73.625 C-285.28430859 71.47767813 -280.13085109 69.56692853 -274.9375 67.6875 C-267.57049865 65.01698032 -260.35465046 62.0885875 -253.1574707 58.9921875 C-246.60106719 56.19464353 -239.95340287 53.70790883 -233.22851562 51.34570312 C-230.17438518 50.2570235 -227.396109 49.24300766 -224.625 47.54296875 C-220.46385277 45.09705631 -215.91992387 43.71276125 -211.375 42.125 C-204.61513776 39.7211886 -198.02319543 37.23135315 -191.54296875 34.140625 C-187.37761745 32.27229539 -183.06834752 30.82692191 -178.76171875 29.3203125 C-174.70208219 27.89543487 -170.65960322 26.43149972 -166.625 24.9375 C-165.98344971 24.70426025 -165.34189941 24.47102051 -164.6809082 24.23071289 C-161.38202473 23.00422131 -158.23920149 21.65140914 -155.109375 20.0390625 C-150.73969752 17.80436339 -146.23707553 16.10182336 -141.625 14.4375 C-140.78573975 14.13013916 -139.94647949 13.82277832 -139.08178711 13.50610352 C-134.94017735 12.00390069 -130.81478119 10.59909877 -126.5625 9.4375 C-122.92376766 8.41215274 -119.7876242 6.93931696 -116.4375 5.1875 C-107.94794362 0.7720498 -98.87525982 -2.07509825 -89.8046875 -5.046875 C-87.04507908 -5.93475724 -87.04507908 -5.93475724 -84.66015625 -7.0546875 C-59.11676798 -16.13177996 -23.96925732 -11.53847432 0 0 Z " fill="#FEFEFE" transform="translate(1348,1166)"/>
</svg>
